# xmcd
# 
# Track frame offsets:
#	183
#	17290
#	33025
#	49340
#	68010
#	80350
#	95115
#	108095
#	128490
#	139978
#	162735
#	179450
#	192508
#	217775
#	232955
#	250095
#	268058
#	283493
#	298430
#	311868
#
# Disc length: 4319 seconds
#
# Revision: 1
# Processed by: cddbd v1.4PL0 Copyright (c) Steve Scherf et al.
# Submitted via: Audio-CD-Archiv 2.10.446
#
DISCID=2b10dd14
DTITLE=Bobby Bland - The best of - Master Of The Blues
DYEAR=1900
DGENRE=blues
TTITLE0=Ain't No Love In The Heart Of The City
TTITLE1=Blues In The Night
TTITLE2=I Ain't Gonna Be The First To Cry
TTITLE3=Dreamer
TTITLE4=Cry, Cry, Cry
TTITLE5=Stormy Monday Blues
TTITLE6=Reconsider Baby
TTITLE7=(If Loving You Is Wrong) I Don't Want To Be Right
TTITLE8=Ain't Nothing You Can Do
TTITLE9=The Trill Is Gone (with B. B. King)
TTITLE10=Yolanda
TTITLE11=Fever
TTITLE12=Let The Good Times Roll (with B. B. King)
TTITLE13=Chains Of Love
TTITLE14=It's Not The Spotlight
TTITLE15=Everyday (I Have The Blues) (with B. B. King)
TTITLE16=This Time I'm Gone For Good
TTITLE17=Lovin' On Borrowed Time
TTITLE18=The Right Place At The Right Time
TTITLE19=I Pity The Fool
EXTD=
EXTT0=
EXTT1=
EXTT2=
EXTT3=
EXTT4=
EXTT5=
EXTT6=
EXTT7=
EXTT8=
EXTT9=
EXTT10=
EXTT11=
EXTT12=
EXTT13=
EXTT14=
EXTT15=
EXTT16=
EXTT17=
EXTT18=
EXTT19=
PLAYORDER=
